<?xml version="1.0" standalone="no"?>
<!DOCTYPE svg PUBLIC "-//W3C//DTD SVG 20010904//EN"
 "http://www.w3.org/TR/2001/REC-SVG-20010904/DTD/svg10.dtd">
<svg version="1.0" xmlns="http://www.w3.org/2000/svg"
 width="602.000000pt" height="300.000000pt" viewBox="0 0 602.000000 300.000000"
 preserveAspectRatio="xMidYMid meet">

<g transform="translate(0.000000,300.000000) scale(0.100000,-0.100000)"
fill="#000000" stroke="none">
<path d="M927 2372 l-497 -167 0 -595 0 -595 294 -294 294 -293 516 172 516
172 0 593 0 593 -297 291 c-164 160 -304 291 -313 290 -8 0 -239 -76 -513
-167z m511 -234 l-3 -381 -205 -69 -205 -68 -287 287 -288 288 482 162 c266
89 489 162 496 162 10 1 12 -78 10 -381z m578 -185 c-5 -5 -539 -183 -548
-183 -5 0 -8 168 -8 372 l0 373 280 -280 c153 -153 278 -281 276 -282z m-1284
-60 l278 -278 0 -195 0 -195 -278 -93 c-152 -50 -281 -92 -285 -92 -4 0 -7
254 -7 565 0 311 3 565 7 565 5 0 133 -125 285 -277z m1298 -525 l0 -573 -285
285 -285 285 0 192 0 191 283 95 c155 53 283 96 285 96 1 1 2 -257 2 -571z
m-592 185 l-3 -186 -202 -68 -203 -67 0 186 0 187 198 67 c108 36 200 67 205
67 4 1 6 -83 5 -186z m302 -488 c192 -192 279 -286 269 -290 -22 -8 -973 -325
-976 -325 -2 0 -3 172 -3 383 l0 382 198 67 c108 36 204 67 212 67 8 1 143
-127 300 -284z m-730 -227 l0 -373 -275 275 c-151 151 -275 277 -275 280 0 4
321 115 548 189 1 1 2 -167 2 -371z"/>
<path d="M2648 2371 l-498 -166 0 -590 0 -590 298 -298 297 -297 513 171 512
171 0 591 0 592 -293 293 c-201 201 -298 292 -312 291 -11 -1 -244 -77 -517
-168z m815 -129 l287 -287 -502 -167 -502 -168 -286 286 c-204 205 -281 288
-270 292 13 6 965 327 980 331 3 0 134 -128 293 -287z m-723 -1212 l0 -575
-285 285 -285 285 0 575 0 575 285 -285 285 -285 0 -575z m1017 327 l-2 -572
-495 -166 c-272 -92 -496 -165 -498 -164 -1 1 -3 260 -3 576 l0 574 493 166
c271 92 496 165 500 162 4 -2 7 -261 5 -576z"/>
<path d="M4475 2371 l-500 -168 -3 -588 -2 -589 297 -298 298 -298 512 171
513 171 2 589 3 589 -295 295 c-162 162 -302 295 -310 294 -8 0 -240 -76 -515
-168z m515 -230 l0 -379 -208 -70 -209 -69 -287 285 c-158 156 -286 286 -284
287 7 5 964 323 976 324 9 1 12 -81 12 -378z m318 -274 c-145 -48 -271 -90
-280 -93 -17 -5 -18 17 -18 368 l0 373 280 -280 280 -280 -262 -88z m-748
-837 l0 -575 -285 285 -285 285 0 575 0 575 285 -285 285 -285 0 -575z m1020
332 l0 -577 -500 -167 -500 -166 0 578 0 578 493 165 c270 91 495 166 500 166
4 1 7 -259 7 -577z"/>
</g>
</svg>
